<?xml version="1.0" standalone="no"?>
<!DOCTYPE svg PUBLIC "-//W3C//DTD SVG 20010904//EN"
 "http://www.w3.org/TR/2001/REC-SVG-20010904/DTD/svg10.dtd">
<svg version="1.0" xmlns="http://www.w3.org/2000/svg"
 width="1024.000000pt" height="1024.000000pt" viewBox="0 0 1024.000000 1024.000000"
 preserveAspectRatio="xMidYMid meet">
<metadata>
Created by potrace 1.14, written by Peter Selinger 2001-2017
</metadata>
<g transform="translate(0.000000,1024.000000) scale(0.100000,-0.100000)"
fill="#000000" stroke="none">
<path d="M4848 10235 c-2 -1 -48 -5 -103 -9 -118 -8 -176 -14 -230 -22 -22 -3
-53 -7 -70 -8 -49 -5 -146 -21 -195 -31 -14 -3 -42 -7 -62 -9 -20 -2 -40 -6
-45 -9 -4 -3 -26 -8 -48 -11 -22 -4 -77 -15 -122 -26 -46 -11 -93 -22 -105
-24 -100 -20 -563 -169 -583 -187 -5 -5 -15 -9 -22 -9 -42 0 -469 -202 -673
-319 -132 -76 -348 -211 -377 -236 -6 -5 -35 -26 -63 -45 -304 -209 -686 -561
-949 -875 -135 -162 -362 -472 -417 -570 -6 -11 -30 -51 -54 -89 -200 -326
-409 -796 -511 -1151 -55 -190 -91 -332 -113 -445 -2 -14 -9 -47 -15 -75 -6
-27 -12 -63 -15 -80 -2 -16 -9 -59 -14 -95 -15 -94 -20 -128 -27 -195 -4 -33
-8 -71 -10 -85 -27 -177 -27 -778 0 -1015 2 -16 6 -55 9 -85 8 -67 13 -112 21
-165 4 -22 8 -52 11 -67 2 -16 7 -43 10 -60 3 -18 8 -42 9 -53 5 -34 35 -178
50 -235 8 -30 16 -66 19 -80 3 -14 12 -50 21 -80 15 -50 31 -110 40 -150 9
-38 100 -293 151 -422 73 -187 241 -528 344 -698 44 -74 86 -144 93 -155 7
-11 14 -22 17 -25 3 -3 10 -13 15 -22 43 -74 298 -420 348 -473 7 -7 35 -39
62 -71 161 -188 413 -435 606 -594 23 -19 47 -40 53 -45 33 -30 266 -202 361
-265 417 -279 913 -514 1375 -652 78 -23 238 -68 260 -72 8 -2 29 -6 45 -10
90 -21 112 -26 138 -30 15 -3 35 -7 45 -10 15 -4 52 -11 117 -21 11 -2 49 -8
85 -14 75 -12 122 -18 200 -26 30 -4 71 -8 90 -10 226 -27 809 -27 1015 0 17
2 57 7 90 10 75 8 113 13 145 20 14 3 45 8 70 11 25 3 54 8 65 10 11 2 34 6
50 9 17 3 50 10 75 15 25 5 56 12 70 14 14 2 52 11 85 19 33 9 71 18 85 20 14
3 66 17 115 32 50 14 99 28 110 30 73 15 433 149 580 215 190 86 231 105 240
111 6 4 53 29 105 57 119 62 125 65 243 137 54 33 106 65 115 70 62 36 361
250 438 314 17 14 53 44 80 66 152 124 363 328 516 497 40 44 80 88 88 97 8 9
33 39 55 66 22 28 42 52 45 55 8 8 123 155 138 176 7 11 43 62 80 114 65 91
174 260 222 345 13 22 36 63 52 90 29 51 197 381 198 390 1 8 50 119 60 137 6
10 10 22 10 28 0 6 9 29 19 53 52 114 176 492 196 596 2 13 7 31 10 41 6 19
13 48 21 90 2 14 7 32 10 40 13 37 65 326 79 440 3 25 8 63 11 85 4 22 8 58 9
80 2 22 7 83 11 135 16 187 9 757 -10 880 -2 14 -7 54 -11 90 -7 77 -12 115
-19 155 -3 17 -8 48 -11 70 -4 22 -8 51 -11 65 -2 14 -7 41 -10 60 -3 19 -9
51 -14 70 -5 19 -12 51 -15 70 -35 207 -182 673 -289 915 -12 28 -29 66 -36
85 -25 63 -169 347 -232 458 -144 254 -417 636 -589 827 -20 22 -50 55 -65 74
-79 91 -332 338 -455 442 -29 24 -57 49 -63 55 -27 25 -249 195 -331 252 -98
69 -285 192 -291 192 -2 0 -32 17 -66 38 -62 38 -229 129 -298 163 -42 20
-223 105 -265 124 -121 54 -476 182 -565 205 -19 5 -62 16 -95 25 -33 10 -67
19 -75 21 -8 1 -53 12 -99 24 -90 22 -202 46 -261 55 -19 3 -48 8 -65 12 -16
3 -39 7 -50 9 -43 7 -92 14 -140 20 -27 3 -61 8 -75 9 -14 2 -55 6 -91 10 -36
3 -88 8 -115 11 -53 6 -660 14 -666 9z"/>
</g>
</svg>
